<svg width="20" height="20" viewBox="0 0 20 20" fill="none" xmlns="http://www.w3.org/2000/svg">
<path d="M14.5833 2.5C14.8043 2.5 15.0162 2.5878 15.1725 2.74408C15.3288 2.90036 15.4166 3.11232 15.4166 3.33333V16.6667C15.4166 16.8877 15.3288 17.0996 15.1725 17.2559C15.0162 17.4122 14.8043 17.5 14.5833 17.5H12.0833C11.8622 17.5 11.6503 17.4122 11.494 17.2559C11.3377 17.0996 11.2499 16.8877 11.2499 16.6667V3.33333C11.2499 3.11232 11.3377 2.90036 11.494 2.74408C11.6503 2.5878 11.8622 2.5 12.0833 2.5H14.5833ZM7.91659 2.5C8.1376 2.5 8.34956 2.5878 8.50584 2.74408C8.66212 2.90036 8.74992 3.11232 8.74992 3.33333V16.6667C8.74992 16.8877 8.66212 17.0996 8.50584 17.2559C8.34956 17.4122 8.1376 17.5 7.91659 17.5H5.41659C5.19557 17.5 4.98361 17.4122 4.82733 17.2559C4.67105 17.0996 4.58325 16.8877 4.58325 16.6667V3.33333C4.58325 3.11232 4.67105 2.90036 4.82733 2.74408C4.98361 2.5878 5.19557 2.5 5.41659 2.5H7.91659Z" stroke="#797979" stroke-width="1.5" stroke-linecap="round" stroke-linejoin="round"/>
</svg>
