<svg width="30" height="16" viewBox="0 0 30 16" fill="none" xmlns="http://www.w3.org/2000/svg">
<path d="M21.4123 7.63845L15.8393 2.32845C15.7463 2.23981 15.6228 2.19036 15.4943 2.19036C15.3658 2.19036 15.2423 2.23981 15.1493 2.32845L15.1433 2.33445C15.098 2.37742 15.062 2.42915 15.0374 2.48648C15.0128 2.54382 15.0001 2.60556 15.0001 2.66795C15.0001 2.73034 15.0128 2.79208 15.0374 2.84942C15.062 2.90675 15.098 2.95848 15.1433 3.00145L20.3913 8.00145L15.1433 12.9995C15.098 13.0424 15.062 13.0942 15.0374 13.1515C15.0128 13.2088 15.0001 13.2706 15.0001 13.333C15.0001 13.3953 15.0128 13.4571 15.0374 13.5144C15.062 13.5718 15.098 13.6235 15.1433 13.6665L15.1493 13.6725C15.2423 13.7611 15.3658 13.8105 15.4943 13.8105C15.6228 13.8105 15.7463 13.7611 15.8393 13.6725L21.4123 8.36245C21.4613 8.31575 21.5003 8.25959 21.527 8.19736C21.5536 8.13514 21.5674 8.06815 21.5674 8.00045C21.5674 7.93275 21.5536 7.86576 21.527 7.80354C21.5003 7.74131 21.4613 7.68515 21.4123 7.63845Z" fill="#A2A2A2"/>
<path d="M14.8449 7.63845L9.2719 2.32845C9.17891 2.23981 9.05537 2.19036 8.9269 2.19036C8.79843 2.19036 8.67489 2.23981 8.5819 2.32845L8.5759 2.33445C8.53066 2.37742 8.49465 2.42915 8.47003 2.48648C8.44542 2.54382 8.43272 2.60556 8.43272 2.66795C8.43272 2.73034 8.44542 2.79208 8.47003 2.84942C8.49465 2.90675 8.53066 2.95848 8.5759 3.00145L13.8239 8.00145L8.5759 12.9995C8.53066 13.0424 8.49465 13.0942 8.47003 13.1515C8.44542 13.2088 8.43272 13.2706 8.43272 13.333C8.43272 13.3953 8.44542 13.4571 8.47003 13.5144C8.49465 13.5718 8.53066 13.6235 8.5759 13.6665L8.5819 13.6725C8.67489 13.7611 8.79843 13.8105 8.9269 13.8105C9.05537 13.8105 9.17891 13.7611 9.2719 13.6725L14.8449 8.36245C14.8939 8.31575 14.9329 8.25959 14.9596 8.19736C14.9863 8.13514 15 8.06815 15 8.00045C15 7.93275 14.9863 7.86576 14.9596 7.80354C14.9329 7.74131 14.8939 7.68515 14.8449 7.63845Z" fill="#A2A2A2"/>
</svg>
