<svg width="30" height="16" viewBox="0 0 30 16" fill="none" xmlns="http://www.w3.org/2000/svg">
<path d="M8.58772 8.36155L14.1607 13.6715C14.2537 13.7602 14.3772 13.8096 14.5057 13.8096C14.6342 13.8096 14.7577 13.7602 14.8507 13.6715L14.8567 13.6655C14.902 13.6226 14.938 13.5708 14.9626 13.5135C14.9872 13.4562 14.9999 13.3944 14.9999 13.332C14.9999 13.2697 14.9872 13.2079 14.9626 13.1506C14.938 13.0932 14.902 13.0415 14.8567 12.9985L9.60872 7.99855L14.8567 3.00055C14.902 2.95758 14.938 2.90585 14.9626 2.84852C14.9872 2.79118 14.9999 2.72944 14.9999 2.66705C14.9999 2.60466 14.9872 2.54292 14.9626 2.48558C14.938 2.42825 14.902 2.37652 14.8567 2.33355L14.8507 2.32755C14.7577 2.2389 14.6342 2.18945 14.5057 2.18945C14.3772 2.18945 14.2537 2.2389 14.1607 2.32755L8.58772 7.63755C8.53871 7.68425 8.49969 7.74041 8.47303 7.80264C8.44636 7.86486 8.43262 7.93185 8.43262 7.99955C8.43262 8.06725 8.44636 8.13424 8.47303 8.19646C8.49969 8.25869 8.53871 8.31485 8.58772 8.36155Z" fill="#A2A2A2"/>
<path d="M15.1551 8.36155L20.7281 13.6715C20.8211 13.7602 20.9446 13.8096 21.0731 13.8096C21.2016 13.8096 21.3251 13.7602 21.4181 13.6715L21.4241 13.6655C21.4693 13.6226 21.5054 13.5708 21.53 13.5135C21.5546 13.4562 21.5673 13.3944 21.5673 13.332C21.5673 13.2697 21.5546 13.2079 21.53 13.1506C21.5054 13.0932 21.4693 13.0415 21.4241 12.9985L16.1761 7.99855L21.4241 3.00055C21.4693 2.95758 21.5054 2.90585 21.53 2.84852C21.5546 2.79118 21.5673 2.72944 21.5673 2.66705C21.5673 2.60466 21.5546 2.54292 21.53 2.48558C21.5054 2.42825 21.4693 2.37652 21.4241 2.33355L21.4181 2.32755C21.3251 2.2389 21.2016 2.18945 21.0731 2.18945C20.9446 2.18945 20.8211 2.2389 20.7281 2.32755L15.1551 7.63755C15.1061 7.68425 15.0671 7.74041 15.0404 7.80264C15.0137 7.86486 15 7.93185 15 7.99955C15 8.06725 15.0137 8.13424 15.0404 8.19646C15.0671 8.25869 15.1061 8.31485 15.1551 8.36155Z" fill="#A2A2A2"/>
</svg>
