<svg width="20" height="20" viewBox="0 0 20 20" fill="none" xmlns="http://www.w3.org/2000/svg">
<path d="M3.33301 6.25033V2.50033C3.33301 2.27931 3.42081 2.06735 3.57709 1.91107C3.73337 1.75479 3.94533 1.66699 4.16634 1.66699H15.833C16.054 1.66699 16.266 1.75479 16.4223 1.91107C16.5785 2.06735 16.6663 2.27931 16.6663 2.50033V17.5003C16.6663 17.7213 16.5785 17.9333 16.4223 18.0896C16.266 18.2459 16.054 18.3337 15.833 18.3337H4.16634C3.94533 18.3337 3.73337 18.2459 3.57709 18.0896C3.42081 17.9333 3.33301 17.7213 3.33301 17.5003V13.7503" stroke="currentColor" stroke-width="1.8" stroke-linecap="round" stroke-linejoin="round"/>
<path d="M12.9165 6.25H14.1665M11.6665 9.58333H14.1665M11.6665 12.9167H14.1665" stroke="currentColor" stroke-width="1.8" stroke-linecap="round"/>
<path d="M4.1665 8.75L6.6665 11.25M6.6665 8.75L4.1665 11.25M1.6665 6.25H9.1665V13.75H1.6665V6.25Z" stroke="currentColor" stroke-width="1.8" stroke-linecap="round" stroke-linejoin="round"/>
</svg>
