<svg width="21" height="21" viewBox="0 0 21 21" fill="none" xmlns="http://www.w3.org/2000/svg">
<g clip-path="url(#clip0_354_601)">
<path d="M14.0586 10.5C14.0586 11.3081 13.7262 12.0831 13.1345 12.6545C12.5429 13.2259 11.7404 13.5469 10.9036 13.5469C10.0668 13.5469 9.26431 13.2259 8.67263 12.6545C8.08094 12.0831 7.74854 11.3081 7.74854 10.5C7.74854 9.69192 8.08094 8.91693 8.67263 8.34553C9.26431 7.77413 10.0668 7.45312 10.9036 7.45312C11.7404 7.45312 12.5429 7.77413 13.1345 8.34553C13.7262 8.91693 14.0586 9.69192 14.0586 10.5Z" fill="#989898"/>
<path d="M0.807617 10.5C0.807617 10.5 4.59368 3.79688 10.9038 3.79688C17.2139 3.79688 20.9999 10.5 20.9999 10.5C20.9999 10.5 17.2139 17.2031 10.9038 17.2031C4.59368 17.2031 0.807617 10.5 0.807617 10.5ZM10.9038 14.7656C12.0753 14.7656 13.1987 14.3162 14.0271 13.5163C14.8555 12.7163 15.3208 11.6313 15.3208 10.5C15.3208 9.36869 14.8555 8.28371 14.0271 7.48375C13.1987 6.68379 12.0753 6.23438 10.9038 6.23438C9.73229 6.23438 8.60879 6.68379 7.78043 7.48375C6.95207 8.28371 6.4867 9.36869 6.4867 10.5C6.4867 11.6313 6.95207 12.7163 7.78043 13.5163C8.60879 14.3162 9.73229 14.7656 10.9038 14.7656Z" fill="#989898"/>
</g>
<defs>
<clipPath id="clip0_354_601">
<rect width="20.1923" height="19.5" fill="white" transform="translate(0.807617 0.75)"/>
</clipPath>
</defs>
</svg>
