<svg width="18" height="18" viewBox="0 0 18 18" fill="none" xmlns="http://www.w3.org/2000/svg">
<path fill-rule="evenodd" clip-rule="evenodd" d="M2.25 3.375C2.25 3.07663 2.36853 2.79048 2.5795 2.5795C2.79048 2.36853 3.07663 2.25 3.375 2.25H14.625C14.9234 2.25 15.2095 2.36853 15.4205 2.5795C15.6315 2.79048 15.75 3.07663 15.75 3.375V4.9395C15.7499 5.33729 15.5918 5.71876 15.3105 6L11.25 10.0605V15.6285C11.25 15.7691 11.2141 15.9075 11.1456 16.0303C11.0771 16.1531 10.9784 16.2564 10.8588 16.3304C10.7391 16.4043 10.6026 16.4465 10.4621 16.4528C10.3216 16.4591 10.1818 16.4294 10.056 16.3665L7.26825 14.973C7.11253 14.8951 6.98156 14.7755 6.89003 14.6274C6.79849 14.4793 6.75001 14.3086 6.75 14.1345V10.0605L2.6895 6C2.40818 5.71876 2.25008 5.33729 2.25 4.9395V3.375ZM3.75 3.75V4.9395L7.92 9.1095C8.02459 9.21396 8.10756 9.338 8.16418 9.47454C8.22081 9.61108 8.24997 9.75744 8.25 9.90525V13.7865L9.75 14.5365V9.90525C9.75 9.60675 9.8685 9.32025 10.08 9.11025L14.25 4.93875V3.75H3.75Z" fill="currentColor"/>
</svg>
