<svg width="20" height="20" viewBox="0 0 20 20" fill="none" xmlns="http://www.w3.org/2000/svg">
<path d="M16.875 1.875H3.125C2.79348 1.875 2.47554 2.0067 2.24112 2.24112C2.0067 2.47554 1.875 2.79348 1.875 3.125V16.875C1.875 17.2065 2.0067 17.5245 2.24112 17.7589C2.47554 17.9933 2.79348 18.125 3.125 18.125H16.875C17.2065 18.125 17.5245 17.9933 17.7589 17.7589C17.9933 17.5245 18.125 17.2065 18.125 16.875V3.125C18.125 2.79348 17.9933 2.47554 17.7589 2.24112C17.5245 2.0067 17.2065 1.875 16.875 1.875ZM5.625 13.125H3.125V10.625H5.625V13.125ZM6.875 14.375H9.375V16.875H6.875V14.375ZM10.625 14.375H13.125V16.875H10.625V14.375ZM10.625 9.375V6.875H13.125V9.375H10.625ZM13.125 5.625H10.625V3.125H13.125V5.625ZM14.375 6.875H16.875V9.375H14.375V6.875ZM9.375 3.125V9.375H3.125V3.125H9.375ZM14.375 16.875V10.625H16.875V16.875H14.375Z" fill="currentColor"/>
</svg>
