<svg width="30" height="16" viewBox="0 0 30 16" fill="none" xmlns="http://www.w3.org/2000/svg">
<path d="M11.8714 8.36245L17.4444 13.6725C17.5374 13.7611 17.6609 13.8105 17.7894 13.8105C17.9179 13.8105 18.0414 13.7611 18.1344 13.6725L18.1404 13.6665C18.1856 13.6235 18.2217 13.5718 18.2463 13.5144C18.2709 13.4571 18.2836 13.3953 18.2836 13.333C18.2836 13.2706 18.2709 13.2088 18.2463 13.1515C18.2217 13.0942 18.1856 13.0424 18.1404 12.9995L12.8924 7.99945L18.1404 3.00145C18.1856 2.95848 18.2217 2.90675 18.2463 2.84942C18.2709 2.79209 18.2836 2.73034 18.2836 2.66795C18.2836 2.60556 18.2709 2.54382 18.2463 2.48648C18.2217 2.42915 18.1856 2.37743 18.1404 2.33445L18.1344 2.32845C18.0414 2.23981 17.9179 2.19036 17.7894 2.19036C17.6609 2.19036 17.5374 2.23981 17.4444 2.32845L11.8714 7.63845C11.8224 7.68515 11.7834 7.74131 11.7567 7.80354C11.7301 7.86576 11.7163 7.93275 11.7163 8.00045C11.7163 8.06815 11.7301 8.13514 11.7567 8.19737C11.7834 8.25959 11.8224 8.31575 11.8714 8.36245Z" fill="#A2A2A2"/>
</svg>
