<svg width="14" height="14" viewBox="0 0 14 14" fill="none" xmlns="http://www.w3.org/2000/svg">
<g clip-path="url(#clip0_345_52174)">
<path d="M3.75801 5.85229C3.92344 5.38394 4.19199 4.94351 4.57012 4.56753C5.91289 3.22476 8.08926 3.22476 9.43203 4.56753L9.79941 4.93706H8.71875C8.33848 4.93706 8.03125 5.24429 8.03125 5.62456C8.03125 6.00483 8.33848 6.31206 8.71875 6.31206H11.458H11.4666C11.8469 6.31206 12.1541 6.00483 12.1541 5.62456V2.87456C12.1541 2.49429 11.8469 2.18706 11.4666 2.18706C11.0863 2.18706 10.7791 2.49429 10.7791 2.87456V3.97456L10.4031 3.59644C8.52324 1.71655 5.47676 1.71655 3.59687 3.59644C3.07266 4.12065 2.69453 4.73726 2.4625 5.39683C2.33574 5.75561 2.5248 6.14663 2.88145 6.27339C3.23809 6.40015 3.63125 6.21108 3.75801 5.85444V5.85229ZM2.33789 7.71499C2.23047 7.74722 2.12734 7.80522 2.04355 7.89116C1.95762 7.9771 1.89961 8.08022 1.86953 8.19194C1.86309 8.21772 1.85664 8.24565 1.85234 8.27358C1.8459 8.31011 1.84375 8.34663 1.84375 8.38315V11.1246C1.84375 11.5048 2.15098 11.8121 2.53125 11.8121C2.91152 11.8121 3.21875 11.5048 3.21875 11.1246V10.0267L3.59687 10.4027C5.47676 12.2804 8.52324 12.2804 10.401 10.4027C10.9252 9.87847 11.3055 9.26187 11.5375 8.60444C11.6643 8.24565 11.4752 7.85464 11.1186 7.72788C10.7619 7.60112 10.3687 7.79019 10.242 8.14683C10.0766 8.61519 9.80801 9.05562 9.42988 9.43159C8.08711 10.7744 5.91074 10.7744 4.56797 9.43159L4.56582 9.42944L4.19844 9.06206H5.28125C5.66152 9.06206 5.96875 8.75483 5.96875 8.37456C5.96875 7.99429 5.66152 7.68706 5.28125 7.68706H2.53984C2.50547 7.68706 2.47109 7.68921 2.43672 7.69351C2.40234 7.6978 2.37012 7.70425 2.33789 7.71499Z" fill="#636366"/>
</g>
<defs>
<clipPath id="clip0_345_52174">
<path d="M1.5 1.5H12.5V12.5H1.5V1.5Z" fill="white"/>
</clipPath>
</defs>
</svg>
