<svg width="30" height="16" viewBox="0 0 30 16" fill="none" xmlns="http://www.w3.org/2000/svg">
<path d="M18.1286 7.63755L12.5556 2.32755C12.4626 2.2389 12.3391 2.18945 12.2106 2.18945C12.0821 2.18945 11.9586 2.2389 11.8656 2.32755L11.8596 2.33355C11.8144 2.37652 11.7783 2.42825 11.7537 2.48558C11.7291 2.54291 11.7164 2.60466 11.7164 2.66705C11.7164 2.72944 11.7291 2.79118 11.7537 2.84852C11.7783 2.90585 11.8144 2.95758 11.8596 3.00055L17.1076 8.00055L11.8596 12.9985C11.8144 13.0415 11.7783 13.0932 11.7537 13.1506C11.7291 13.2079 11.7164 13.2697 11.7164 13.332C11.7164 13.3944 11.7291 13.4562 11.7537 13.5135C11.7783 13.5708 11.8144 13.6226 11.8596 13.6655L11.8656 13.6715C11.9586 13.7602 12.0821 13.8096 12.2106 13.8096C12.3391 13.8096 12.4626 13.7602 12.5556 13.6715L18.1286 8.36155C18.1776 8.31485 18.2166 8.25869 18.2433 8.19646C18.2699 8.13424 18.2837 8.06725 18.2837 7.99955C18.2837 7.93185 18.2699 7.86486 18.2433 7.80263C18.2166 7.74041 18.1776 7.68425 18.1286 7.63755Z" fill="#A2A2A2"/>
</svg>
