<svg width="20" height="20" viewBox="0 0 20 20" fill="none" xmlns="http://www.w3.org/2000/svg">
<path d="M2.5 5.41634C2.5 5.19533 2.5878 4.98337 2.74408 4.82709C2.90036 4.67081 3.11232 4.58301 3.33333 4.58301H16.6667C16.8877 4.58301 17.0996 4.67081 17.2559 4.82709C17.4122 4.98337 17.5 5.19533 17.5 5.41634V7.91634C17.5 8.13736 17.4122 8.34932 17.2559 8.5056C17.0996 8.66188 16.8877 8.74967 16.6667 8.74967H3.33333C3.11232 8.74967 2.90036 8.66188 2.74408 8.5056C2.5878 8.34932 2.5 8.13736 2.5 7.91634V5.41634ZM2.5 12.083C2.5 11.862 2.5878 11.65 2.74408 11.4938C2.90036 11.3375 3.11232 11.2497 3.33333 11.2497H16.6667C16.8877 11.2497 17.0996 11.3375 17.2559 11.4938C17.4122 11.65 17.5 11.862 17.5 12.083V14.583C17.5 14.804 17.4122 15.016 17.2559 15.1723C17.0996 15.3285 16.8877 15.4163 16.6667 15.4163H3.33333C3.11232 15.4163 2.90036 15.3285 2.74408 15.1723C2.5878 15.016 2.5 14.804 2.5 14.583V12.083Z" stroke="#797979" stroke-width="1.5" stroke-linecap="round" stroke-linejoin="round"/>
</svg>
