<svg width="25" height="25" viewBox="0 0 25 25" fill="none" xmlns="http://www.w3.org/2000/svg">
<mask id="path-1-inside-1_397_53606" fill="white">
<path d="M10.6771 3.125C6.51543 3.125 3.125 6.51544 3.125 10.6771C3.125 14.8387 6.51543 18.2292 10.6771 18.2292C12.4773 18.2292 14.1321 17.5933 15.4317 16.5365L20.5414 21.6461C20.6134 21.7211 20.6996 21.781 20.795 21.8222C20.8904 21.8634 20.9931 21.8852 21.097 21.8863C21.201 21.8873 21.3041 21.8676 21.4003 21.8283C21.4965 21.7891 21.584 21.731 21.6575 21.6575C21.731 21.584 21.7891 21.4965 21.8283 21.4003C21.8676 21.3041 21.8873 21.201 21.8863 21.097C21.8852 20.9931 21.8634 20.8904 21.8222 20.795C21.781 20.6996 21.7211 20.6134 21.6461 20.5414L16.5365 15.4317C17.5933 14.1321 18.2292 12.4773 18.2292 10.6771C18.2292 6.51544 14.8387 3.125 10.6771 3.125ZM10.6771 4.6875C13.9943 4.6875 16.6667 7.35987 16.6667 10.6771C16.6667 12.293 16.0293 13.753 14.9953 14.8285C14.9316 14.8753 14.8753 14.9316 14.8285 14.9953C13.753 16.0293 12.293 16.6667 10.6771 16.6667C7.35987 16.6667 4.6875 13.9943 4.6875 10.6771C4.6875 7.35987 7.35987 4.6875 10.6771 4.6875Z"/>
</mask>
<path d="M10.6771 3.125C6.51543 3.125 3.125 6.51544 3.125 10.6771C3.125 14.8387 6.51543 18.2292 10.6771 18.2292C12.4773 18.2292 14.1321 17.5933 15.4317 16.5365L20.5414 21.6461C20.6134 21.7211 20.6996 21.781 20.795 21.8222C20.8904 21.8634 20.9931 21.8852 21.097 21.8863C21.201 21.8873 21.3041 21.8676 21.4003 21.8283C21.4965 21.7891 21.584 21.731 21.6575 21.6575C21.731 21.584 21.7891 21.4965 21.8283 21.4003C21.8676 21.3041 21.8873 21.201 21.8863 21.097C21.8852 20.9931 21.8634 20.8904 21.8222 20.795C21.781 20.6996 21.7211 20.6134 21.6461 20.5414L16.5365 15.4317C17.5933 14.1321 18.2292 12.4773 18.2292 10.6771C18.2292 6.51544 14.8387 3.125 10.6771 3.125ZM10.6771 4.6875C13.9943 4.6875 16.6667 7.35987 16.6667 10.6771C16.6667 12.293 16.0293 13.753 14.9953 14.8285C14.9316 14.8753 14.8753 14.9316 14.8285 14.9953C13.753 16.0293 12.293 16.6667 10.6771 16.6667C7.35987 16.6667 4.6875 13.9943 4.6875 10.6771C4.6875 7.35987 7.35987 4.6875 10.6771 4.6875Z" fill="#808080"/>
<path d="M15.4317 16.5365L18.9673 13.0009L15.7773 9.81095L12.2772 12.6572L15.4317 16.5365ZM20.5414 21.6461L24.1481 18.1832L24.1129 18.1465L24.0769 18.1106L20.5414 21.6461ZM21.6461 20.5414L18.1106 24.0769L18.1465 24.1129L18.1832 24.1481L21.6461 20.5414ZM16.5365 15.4317L12.6572 12.2772L9.81095 15.7773L13.0009 18.9673L16.5365 15.4317ZM14.9953 14.8285L17.9565 18.8573L18.3024 18.6031L18.5998 18.2937L14.9953 14.8285ZM14.8285 14.9953L18.2937 18.5998L18.6031 18.3024L18.8573 17.9565L14.8285 14.9953ZM10.6771 3.125V-1.875C3.75401 -1.875 -1.875 3.75402 -1.875 10.6771H3.125H8.125C8.125 9.27686 9.27686 8.125 10.6771 8.125V3.125ZM3.125 10.6771H-1.875C-1.875 17.6002 3.75401 23.2292 10.6771 23.2292V18.2292V13.2292C9.27686 13.2292 8.125 12.0773 8.125 10.6771H3.125ZM10.6771 18.2292V23.2292C13.6762 23.2292 16.4346 22.1654 18.5863 20.4157L15.4317 16.5365L12.2772 12.6572C11.8296 13.0211 11.2784 13.2292 10.6771 13.2292V18.2292ZM15.4317 16.5365L11.8962 20.072L17.0058 25.1817L20.5414 21.6461L24.0769 18.1106L18.9673 13.0009L15.4317 16.5365ZM20.5414 21.6461L16.9347 25.109C17.4674 25.6638 18.1054 26.1068 18.8114 26.4119L20.795 21.8222L22.7786 17.2325C23.2938 17.4552 23.7594 17.7784 24.1481 18.1832L20.5414 21.6461ZM20.795 21.8222L18.8114 26.4119C19.5174 26.717 20.2772 26.8782 21.0462 26.886L21.097 21.8863L21.1479 16.8865C21.709 16.8922 22.2635 17.0098 22.7786 17.2325L20.795 21.8222ZM21.097 21.8863L21.0462 26.886C21.8153 26.8938 22.5782 26.7481 23.2902 26.4574L21.4003 21.8283L19.5104 17.1993C20.03 16.9871 20.5867 16.8808 21.1479 16.8865L21.097 21.8863ZM21.4003 21.8283L23.2902 26.4574C24.0023 26.1667 24.6491 25.7369 25.193 25.193L21.6575 21.6575L18.1219 18.1219C18.5188 17.7251 18.9908 17.4114 19.5104 17.1993L21.4003 21.8283ZM21.6575 21.6575L25.193 25.193C25.7369 24.6491 26.1667 24.0023 26.4574 23.2902L21.8283 21.4003L17.1993 19.5104C17.4114 18.9908 17.7251 18.5188 18.1219 18.1219L21.6575 21.6575ZM21.8283 21.4003L26.4574 23.2902C26.7481 22.5782 26.8938 21.8153 26.886 21.0462L21.8863 21.097L16.8865 21.1479C16.8808 20.5867 16.9871 20.03 17.1993 19.5104L21.8283 21.4003ZM21.8863 21.097L26.886 21.0462C26.8782 20.2772 26.717 19.5174 26.4119 18.8114L21.8222 20.795L17.2325 22.7786C17.0098 22.2635 16.8922 21.709 16.8865 21.1479L21.8863 21.097ZM21.8222 20.795L26.4119 18.8114C26.1068 18.1054 25.6638 17.4674 25.109 16.9347L21.6461 20.5414L18.1832 24.1481C17.7784 23.7594 17.4552 23.2938 17.2325 22.7786L21.8222 20.795ZM21.6461 20.5414L25.1817 17.0058L20.072 11.8962L16.5365 15.4317L13.0009 18.9673L18.1106 24.0769L21.6461 20.5414ZM16.5365 15.4317L20.4157 18.5863C22.1654 16.4346 23.2292 13.6762 23.2292 10.6771H18.2292H13.2292C13.2292 11.2784 13.0211 11.8296 12.6572 12.2772L16.5365 15.4317ZM18.2292 10.6771H23.2292C23.2292 3.75402 17.6002 -1.875 10.6771 -1.875V3.125V8.125C12.0773 8.125 13.2292 9.27686 13.2292 10.6771H18.2292ZM10.6771 4.6875V9.6875C11.2329 9.6875 11.6667 10.1213 11.6667 10.6771H16.6667H21.6667C21.6667 4.59845 16.7557 -0.3125 10.6771 -0.3125V4.6875ZM16.6667 10.6771H11.6667C11.6667 10.9478 11.567 11.18 11.3908 11.3633L14.9953 14.8285L18.5998 18.2937C20.4915 16.3259 21.6667 13.6383 21.6667 10.6771H16.6667ZM14.9953 14.8285L12.0341 10.7997C11.5625 11.1463 11.1463 11.5625 10.7997 12.0341L14.8285 14.9953L18.8573 17.9565C18.6044 18.3006 18.3006 18.6044 17.9565 18.8573L14.9953 14.8285ZM14.8285 14.9953L11.3633 11.3908C11.18 11.567 10.9478 11.6667 10.6771 11.6667V16.6667V21.6667C13.6383 21.6667 16.3259 20.4915 18.2937 18.5998L14.8285 14.9953ZM10.6771 16.6667V11.6667C10.1213 11.6667 9.6875 11.2329 9.6875 10.6771H4.6875H-0.3125C-0.3125 16.7557 4.59845 21.6667 10.6771 21.6667V16.6667ZM4.6875 10.6771H9.6875C9.6875 10.1213 10.1213 9.6875 10.6771 9.6875V4.6875V-0.3125C4.59845 -0.3125 -0.3125 4.59845 -0.3125 10.6771H4.6875Z" fill="#808080" mask="url(#path-1-inside-1_397_53606)"/>
</svg>
